<svg aria-hidden="true" style="position:absolute;width:0;height:0;overflow:hidden" xmlns="http://www.w3.org/2000/svg"><defs><symbol id="icon-star-1" viewBox="0 0 32 32"><path d="M25.33 5.802H6.663v18.667H25.33V5.802z"/></symbol><symbol id="icon-star-2" viewBox="0 0 32 32"><path  d="M28.446.633H3.556v24.89h24.89V.633z"/></symbol><symbol id="icon--14" viewBox="0 0 32 32"><path  d="M28.443 4.186H3.553v24.89h24.89V4.186z"/></symbol><symbol id="icon-Vector-15" viewBox="0 0 32 32"><path d="M28.446.633H3.556v24.89h24.89V.633z"/></symbol><symbol id="icon-man-man" viewBox="0 0 32 32"><path d="M28.934 13.699 17.395 2.212a2.869 2.869 0 0 0-4.052 0L1.807 13.699c-.54.543-.844 1.272-.844 2.036s.302 1.496.844 2.036l11.536 11.487c.56.557 1.295.836 2.028.836s1.467-.279 2.025-.836l11.539-11.487a2.874 2.874 0 0 0 0-4.072zM15.371 23.17l-7.467-7.435L15.371 8.3l7.47 7.435-7.47 7.435z"/></symbol><symbol id="icon-the-times-top" viewBox="0 0 18 32"><path  d="M2.688 8.993v12.754a6.377 6.377 0 1 0 12.754 0V8.993a6.378 6.378 0 0 0-12.754 0z"/></symbol><symbol id="icon-computer-left" viewBox="0 0 19 32"><path  d="M2.079 4.681h14.926v22.388H2.079V4.681z"/></symbol><symbol id="icon-computer-cenrer-right" viewBox="0 0 24 32"><path  d="M2.569 7.18h18.657v18.657H2.569V7.18z"/></symbol><symbol id="icon-computer-right" viewBox="0 0 18 32"><path  d="M4.471 1.825h10.661v26.653H4.471V1.825z"/></symbol><symbol id="icon-computer-center" viewBox="0 0 8 32"><path fill="#2196f3" style="fill:var(--color1, #2196f3)" d="M1.732 1.96h6.219v27.985H1.732V1.96z"/></symbol><symbol id="icon-the-times" viewBox="0 0 31 32"><path d="M30.84 15.301C30.838 6.849 23.985-.002 15.532 0S.229 6.855.231 15.308A15.304 15.304 0 0 0 10.88 29.884a.662.662 0 0 0 .529-.065.637.637 0 0 0 .283-.356l3.865-12.25a1.912 1.912 0 1 0-.84-3.635L9.611 8.471a.637.637 0 0 0-.902.902l5.103 5.109a1.876 1.876 0 0 0 .536 2.309l-3.683 11.673C3.387 25.783-.339 17.71 2.342 10.432S13.096-.572 20.374 2.109s11.004 10.754 8.323 18.032a14.042 14.042 0 0 1-7.462 7.973l-.398-1.874a.638.638 0 0 0-1.048-.344l-3.837 3.426a.637.637 0 0 0 .231 1.084l4.899 1.563a.638.638 0 0 0 .819-.74l-.391-1.839a15.255 15.255 0 0 0 9.329-14.089zm-15.305-.637a.638.638 0 1 1 0 1.277.638.638 0 0 1 0-1.277zm2.1 14.864 2.184-1.948.603 2.84-2.787-.892z"/></symbol><symbol id="icon-Vector-1" viewBox="0 0 30 32"><path d="m29.859 22.098-8.443-8.505.937-4.615c.242.094.499.144.758.146h.006a2.159 2.159 0 1 0-2.008-1.435l-4.96.605L8.058.161a.534.534 0 0 0-.377-.16.532.532 0 0 0-.373.155L5.795 1.66a.534.534 0 0 0 0 .754l.814.826a14.943 14.943 0 0 0 2.519 17.663.513.513 0 0 0 .146.098c-.034.18-.051.364-.052.547v6.187h-6.4a2.67 2.67 0 0 0-2.667 2.667v1.067c0 .295.239.533.533.533h24.533a.533.533 0 0 0 .533-.533v-1.067a2.67 2.67 0 0 0-2.667-2.667h-6.4v-2.742a15.09 15.09 0 0 0 3.049.32 14.854 14.854 0 0 0 7.04-1.783l.818.823a.534.534 0 0 0 .377.16.532.532 0 0 0 .373-.155l1.513-1.504a.534.534 0 0 0 0-.754zM22.366 6.233a1.066 1.066 0 1 1 .752 1.822h-.003a1.067 1.067 0 0 1-.747-1.823h-.002zM21.11 9.738l-.598 2.946-1.175-1.182 1.774-1.763zm-.606-.902-1.92 1.909-1.485-1.493 3.405-.415zM23.09 28.8a1.6 1.6 0 0 1 1.6 1.6v.533H1.223V30.4a1.6 1.6 0 0 1 1.6-1.6H23.09zm-7.467-2.133v1.067H10.29v-1.067h5.333zM10.29 25.6v-4.053c0-1.294 1.196-2.347 2.667-2.347s2.667 1.053 2.667 2.347V25.6h-5.333zm6.4-1.696v-2.357c0-1.882-1.675-3.413-3.733-3.413a3.8 3.8 0 0 0-3.281 1.786A13.87 13.87 0 0 1 7.397 4.033l18.602 18.708a13.818 13.818 0 0 1-9.309 1.163zm11.289-.684L6.922 2.039l.755-.752 7.935 7.98c.004 0 .006.007.01.01l13.115 13.191-.757.752z"/></symbol><symbol id="icon-Vector-2" viewBox="0 0 32 32"><path  d="M17.411 1.333h-.042C9.637 1.321 3.36 7.58 3.348 15.312s6.247 14.009 13.979 14.021h.042c7.732.012 14.009-6.247 14.021-13.979S25.143 1.345 17.411 1.333zm3.267 17.309A4.666 4.666 0 0 1 17.369 20a4.666 4.666 0 0 1-3.267-7.976 4.666 4.666 0 0 1 3.267-1.358 4.666 4.666 0 0 1 3.266 7.976h.042z"/></symbol><symbol id="icon-computer" viewBox="0 0 41 32"><path d="M2.073 31.933h33.168a2.073 2.073 0 0 0 2.073-2.073v-2.764a2.073 2.073 0 0 0-2.073-2.073h-.691V7.791l3.925-3.718A2.086 2.086 0 0 0 40.887.746a2.086 2.086 0 0 0-3.38 2.339L34.55 5.888V4.294a2.073 2.073 0 0 0-2.073-2.073H4.837a2.073 2.073 0 0 0-2.073 2.073v20.73h-.691A2.073 2.073 0 0 0 0 27.097v2.764c0 1.145.928 2.073 2.073 2.073zM39.387 1.529a.69.69 0 1 1 0 1.381.69.69 0 0 1 0-1.381zM4.146 4.293a.69.69 0 0 1 .691-.691h27.64a.69.69 0 0 1 .691.691v2.902l-1.382 1.313V5.675a.69.69 0 0 0-.691-.691H6.219a.69.69 0 0 0-.691.691V22.95a.69.69 0 0 0 .691.691h24.876a.69.69 0 0 0 .691-.691V10.409L33.168 9.1v15.923H4.146V4.293zm6.219 8.983a2.071 2.071 0 0 0-1.064 3.855 2.072 2.072 0 0 0 2.499-.293l2.402 1.205a.69.69 0 0 0 .825-.159l5.106-5.744 5.019 3.761a.69.69 0 0 0 .889-.051l4.362-4.132v10.54H6.909V6.365h23.494v3.449l-4.889 4.63-5.061-3.794a.691.691 0 0 0-.931.094l-5.176 5.824-1.935-.968c.014-.083.023-.167.026-.251a2.073 2.073 0 0 0-2.073-2.073zm.691 2.073a.69.69 0 1 1-1.381 0 .69.69 0 0 1 1.381 0zm4.146 11.056h6.91v.691a.69.69 0 0 1-.691.691h-5.528a.69.69 0 0 1-.691-.691v-.691zm-13.82.691a.69.69 0 0 1 .691-.691H13.82v.691c0 1.145.928 2.073 2.073 2.073h5.528a2.073 2.073 0 0 0 2.073-2.073v-.691h11.747a.69.69 0 0 1 .691.691v2.764a.69.69 0 0 1-.691.691H2.073a.69.69 0 0 1-.691-.691v-2.764z"/></symbol><symbol id="icon-man" viewBox="0 0 29 32"><path d="M28.361 13.626a2.04 2.04 0 0 0-1.364-.809 2.04 2.04 0 0 0-1.537.404l-1.437 1.102-2.178 1.626-1.558-.621c2.779-1.247 4.721-4.026 4.721-7.253 0-4.387-3.583-7.956-7.988-7.956S9.032 3.688 9.032 8.075c0 1.59.476 3.069 1.285 4.313l-3.172-.028H7.14c-.01 0-.018.005-.027.005a.576.576 0 0 0-.178.036c-.015.005-.03.009-.044.015l-.022.007-3.71 1.832-.001.001-2.173 1.045a.432.432 0 0 0-.072.04 2.044 2.044 0 0 0 .525 3.654 2.038 2.038 0 0 0 1.582-.147l1.593-.847 2.598-1.342 1.557-.009-6.245 6.215-.002.001-1.536 1.53c-.363.361-.562.84-.562 1.351s.2.991.562 1.353c.373.371.863.557 1.353.557s.98-.186 1.354-.557L5.2 25.598l1.998-1.491 1.034 1.029-2.022 2.013-.002.001-1.536 1.53c-.363.361-.562.84-.562 1.351s.2.991.562 1.353c.373.371.864.557 1.354.557s.981-.186 1.354-.557l3.995-3.978.001-.002 1.159-1.148-.004-.004c.007-.007.018-.01.025-.018l5.928-6.493 3.983.567a.611.611 0 0 0 .301-.038c.02-.007.038-.017.057-.027.022-.011.045-.017.066-.031l3.687-2.448c.013-.009.021-.024.034-.034.015-.012.033-.016.046-.029l1.459-1.367a2.041 2.041 0 0 0 .243-2.71zM2.445 17.769a.814.814 0 0 1-.641.059.819.819 0 0 1-.244-1.446l1.507-.725.515 1.506-1.138.605zm4.013-2.097-1.777.918-.504-1.473 2.326-1.148-.045 1.703zm17.327-7.598a6.661 6.661 0 0 1-.687 2.937L18.3 8.832a2.136 2.136 0 0 0-.905-1.593l1.68-5.577c2.728.868 4.71 3.413 4.71 6.412zm-13.528 0c0-3.712 3.034-6.732 6.764-6.732.29 0 .574.024.855.06l-1.643 5.455c-.022-.001-.043-.007-.066-.007-1.185 0-2.149.961-2.149 2.142s.964 2.142 2.149 2.142c.797 0 1.485-.44 1.857-1.084l4.432 2.014a6.761 6.761 0 0 1-5.436 2.743c-3.73 0-6.764-3.02-6.764-6.732zm6.835.918c0 .506-.415.918-.925.918s-.925-.412-.925-.918.415-.918.925-.918.925.412.925.918zM2.829 26.233a.698.698 0 0 1-.98.001.682.682 0 0 1 0-.968l1.104-1.1.977.973-1.1 1.096zm3.688 4.285a.698.698 0 0 1-.981.001.682.682 0 0 1 0-.968l1.105-1.1.977.973-1.101 1.096zm3.995-3.981-.002.001-2.025 2.02-.977-.973 2.023-2.014v-.001l.002-.001a.598.598 0 0 0 .103-.155c.008-.016.023-.029.03-.046.019-.047.022-.098.029-.148.004-.028.016-.054.016-.083 0-.041-.015-.081-.023-.121-.007-.037-.007-.074-.021-.11a.596.596 0 0 0-.105-.158c-.012-.013-.016-.031-.029-.043h-.001l-.001-.002-1.844-1.836c-.02-.02-.045-.028-.067-.044a.596.596 0 0 0-.1-.066.522.522 0 0 0-.107-.037.587.587 0 0 0-.118-.023.585.585 0 0 0-.11.006.596.596 0 0 0-.119.023.533.533 0 0 0-.108.051c-.023.013-.048.017-.07.033l-2.035 1.519L3.819 23.3l2.753-2.738 5.004 4.921-1.064 1.055zm7.825-8.052c-.018-.002-.034.004-.052.003a.65.65 0 0 0-.233.032.646.646 0 0 0-.206.124c-.015.013-.032.019-.046.034l-5.391 5.905-4.967-4.885 3.251-3.234a.613.613 0 0 0-.436-1.045v-.001l-2.546.015.032-1.845 3.562.031a7.973 7.973 0 0 0 5.716 2.411c.502 0 .991-.052 1.468-.141.046.037.091.074.149.097l2.765 1.102.379 1.886-3.446-.49zm4.637.205-.359-1.788 1.66-1.239 1.086 1.442-2.387 1.585zm4.308-3.249-.962.901-1.069-1.419.954-.731a.84.84 0 0 1 .623-.164.82.82 0 0 1 .453 1.413z"/></symbol><symbol id="icon-the-times-left-right" viewBox="0 0 64 32"><path  d="M15.773.816C7.553.816.893 7.481.893 15.696c0 8.22 6.659 14.88 14.88 14.88h29.759c8.22 0 14.879-6.659 14.879-14.88 0-8.215-6.659-14.88-14.879-14.88H15.773z"/></symbol><symbol id="icon-star" viewBox="0 0 34 32"><path d="M33.887 11.793a2.337 2.337 0 0 0-1.883-1.587L23.646 8.99l-3.74-7.574c-.784-1.596-3.4-1.596-4.184 0l-3.74 7.574-8.358 1.216a2.334 2.334 0 0 0-1.295 3.979l6.05 5.897-1.428 8.325a2.34 2.34 0 0 0 .926 2.282 2.323 2.323 0 0 0 2.459.177l7.476-3.932 7.476 3.932a2.33 2.33 0 0 0 2.459-.178 2.327 2.327 0 0 0 .926-2.282l-1.428-8.326 6.05-5.896a2.34 2.34 0 0 0 .59-2.392zm-10.776 5.805a2.336 2.336 0 0 0-.67 2.065l.835 4.874-4.377-2.301a2.342 2.342 0 0 0-2.174 0l-4.378 2.301.835-4.874a2.333 2.333 0 0 0-.67-2.065l-3.544-3.453 4.895-.712a2.334 2.334 0 0 0 1.757-1.276l2.189-4.433 2.189 4.433a2.331 2.331 0 0 0 1.757 1.276l4.895.712-3.54 3.453z"/></symbol></defs></svg>